# AST/ASF file generated using VICON BodyLanguage
# -----------------------------------------------
:version 1.10
:name VICON
:units
  mass 1.0
  length 0.45
  angle deg
:documentation
   .ast/.asf automatically generated from VICON data using
   VICON BodyBuilder and BodyLanguage model FoxedUp or BRILLIANT.MOD
:root
   order TX TY TZ RX RY RZ
   axis XYZ
   position 0 0 0  
   orientation 0 0 0 
:bonedata
  begin
     id 1 
     name lhipjoint
     direction 0.561001 -0.76473 0.316963 
     length 2.4722 
     axis 0 0 0  XYZ
  end
  begin
     id 2 
     name lfemur
     direction 0.34202 -0.939693 0  
     length 7.59403  
     axis 0 0 20  XYZ
    dof rx ry rz
    limits (-160.0 20.0)
           (-70.0 70.0)
           (-60.0 70.0)
  end
  begin
     id 3 
     name ltibia
     direction 0.34202 -0.939693 0   
     length 7.89655   
     axis 0 0 20   XYZ
    dof rx
    limits (-10.0 170.0)
  end
  begin
     id 4 
     name lfoot
     direction 0.061296 -0.168409 0.98381   
     length 2.73287   
     axis -90 7.62852e-016 20   XYZ
    dof rx rz
    limits (-45.0 90.0)
           (-70.0 20.0)
  end
  begin
     id 5 
     name ltoes
     direction 1.53547e-011 -4.21984e-011 1   
     length 1.37057   
     axis -90 7.62852e-016 20   XYZ
    dof rx
    limits (-90.0 20.0)
  end
  begin
     id 6 
     name rhipjoint
     direction -0.559611 -0.765599 0.317323   
     length 2.46939  
     axis 0 0 0  XYZ 
  end
  begin
     id 7 
     name rfemur
     direction -0.34202 -0.939693 0   
     length 7.53712   
     axis 0 0 -20   XYZ
    dof rx ry rz
    limits (-160.0 20.0)
           (-70.0 70.0)
           (-70.0 60.0)
  end
  begin
     id 8 
     name rtibia
     direction -0.34202 -0.939693 0   
     length 8.12549   
     axis 0 0 -20   XYZ
    dof rx
    limits (-10.0 170.0)
 end
 begin
     id 9 
     name rfoot
     direction -0.066984 -0.184037 0.980634   
     length 2.67541  
     axis -90 -7.62852e-016 -20   XYZ
    dof rx rz
    limits (-45.0 90.0)
           (-20.0 70.0)
  end
  begin
     id 10 
     name rtoes
     direction -1.53549e-011 -4.21786e-011 1   
     length 1.34085   
     axis -90 -7.62852e-016 -20   XYZ
    dof rx
    limits (-90.0 20.0)
  end
  begin
     id 11 
     name lowerback
     direction -0.0522728 0.992594 -0.109658   
     length 2.05633   
     axis 0 0 0   XYZ
    dof rx ry rz
    limits (-20.0 45.0)
           (-30.0 30.0)
           (-30.0 30.0)
  end
  begin
     id 12 
     name upperback
     direction 0.00589338 0.999977 0.00335704   
     length 2.05845   
     axis 0 0 0   XYZ
    dof rx ry rz
    limits (-20.0 45.0)
           (-30.0 30.0)
           (-30.0 30.0)
  end
  begin
     id 13 
     name thorax
     direction 0.0292928 0.998059 0.0549487   
     length 2.09281   
     axis 0 0 0   XYZ
    dof rx ry rz
    limits (-20.0 45.0)
           (-30.0 30.0)
           (-30.0 30.0)
  end
  begin
     id 14 
     name lowerneck
     direction 0.0356368 0.980775 0.191858   
     length 1.84767   
     axis 0 0 0   XYZ
    dof rx ry rz
    limits (-20.0 45.0)
           (-30.0 30.0)
           (-30.0 30.0)
  end
  begin
     id 15 
     name upperneck
     direction -0.0227605 0.98931 -0.14404   
     length 1.89582   
     axis 0 0 0   XYZ
    dof rx ry rz
    limits (-20.0 45.0)
           (-30.0 30.0)
           (-30.0 30.0)
  end
  begin
     id 16
     name head
     direction -0.00932985 0.997511 -0.0698904  
     length 1.90213  
     axis 0 0 0   XYZ
    dof rx ry rz
    limits (-20.0 45.0)
           (-30.0 30.0)
           (-30.0 30.0)
  end
  begin
     id 17 
     name lclavicle
     direction 0.873442 0.479511 0.0846686  
     length 3.41193  
     axis 0 0 0   XYZ
    dof ry rz
    limits (-20.0 10.0)
           (0.0 20.0)
  end
  begin
     id 18 
     name lhumerus
     direction 1 -4.4897e-011 -5.62117e-018   
     length 5.59864   
     axis 180 -30 -90   XYZ
    dof rx ry rz
    limits (-60.0 90.0)
           (-90.0 90.0)
           (-90.0 90.0)
  end
  begin
     id 19
     name lradius
     direction 1 -4.48966e-011 -6.26295e-027   
     length 3.59542   
     axis 180 -30 -90   XYZ
    dof rx
    limits (-10.0 170.0)
  end
  begin
     id 20
     name lwrist
     direction 1 -4.48947e-011 -1.74096e-026   
     length 1.79771   
     axis 1.04567e-014 90 90   XYZ
    dof ry
    limits (-180.0 0.0)
 end
  begin
     id 21 
     name lhand
     direction 1 -4.49085e-011 -3.48469e-026   
     length 0.572014   
     axis 2.22196e-014 90 90   XYZ
    dof rx rz
    limits (-90.0 90.0)
           (-45.0 45.0)
  end
  begin
     id 22 
     name lfingers
     direction 1 -4.48884e-011 -6.96135e-026   
     length 0.461173   
     axis 4.44383e-014 90 90   XYZ
    dof rx
    limits (0.0 90.0)
  end
  begin
     id 23
     name lthumb
     direction 0.707107 -6.34976e-011 0.707107   
     length 0.662154   
     axis -90 45 -5.4397e-014   XYZ
    dof rx rz
    limits (-45.0 45.0)
           (-45.0 45.0)
  end
  begin
     id 24 
     name rclavicle
     direction -0.890242 0.443271 0.104786   
     length 3.46753  
     axis 0 0 0   XYZ 
    dof ry rz
    limits (-10.0 20.0)
           (-20.0 0.0)
  end
  begin
     id 25 
     name rhumerus
     direction -1 -4.48963e-011 -5.41723e-018  
     length 5.8094   
     axis 180 30 90   XYZ
    dof rx ry rz
    limits (-90.0 60.0)
           (-90.0 90.0)
           (-90.0 90.0)
  end
  begin
     id 26 
     name rradius
     direction -1 -4.48958e-011 -6.51059e-027   
     length 3.66953   
     axis 180 30 90   XYZ
    dof rx
    limits (-10.0 170.0)
  end
  begin
     id 27 
     name rwrist
     direction -1 -4.48975e-011 -1.74124e-026   
     length 1.83476   
     axis 1.04567e-014 -90 -90   XYZ
    dof ry
    limits (-180.0 0.0)
  end
  begin
     id 28
     name rhand
     direction -1 -4.49013e-011 -3.48326e-026   
     length 0.57843   
     axis 2.22196e-014 -90 -90   XYZ
    dof rx rz
    limits (-90.0 90.0)
           (-45.0 45.0)
  end
  begin
     id 29
     name rfingers
     direction -1 -4.49023e-011 -6.9669e-026   
     length 0.466345   
     axis 4.44383e-014 -90 -90   XYZ
    dof rx
    limits (0.0 90.0)
  end
  begin
     id 30
     name rthumb
     direction -0.707107 -6.34926e-011 0.707107   
     length 0.669581   
     axis -90 -45 5.4397e-014   XYZ
    dof rx rz
    limits (-45.0 45.0)
           (-45.0 45.0)
  end
:hierarchy
  begin
    root lhipjoint rhipjoint lowerback
    lhipjoint lfemur
    lfemur ltibia
    ltibia lfoot
    lfoot ltoes
    rhipjoint rfemur
    rfemur rtibia
    rtibia rfoot
    rfoot rtoes
    lowerback upperback
    upperback thorax
    thorax lowerneck lclavicle rclavicle
    lowerneck upperneck
    upperneck head
    lclavicle lhumerus
    lhumerus lradius
    lradius lwrist
    lwrist lhand lthumb
    lhand lfingers
    rclavicle rhumerus
    rhumerus rradius
    rradius rwrist
    rwrist rhand rthumb
    rhand rfingers
  end

#!OML:ASF H:\SkateBoarding\Project 1\Capture day 1\Session 1\Skater.ASF
:FULLY-SPECIFIED
:DEGREES
268
root 1.50163 19.0588 56.002 -189.501 73.8032 -188.543
lowerback 8.77309 -1.62071 -1.40131
upperback 0.21402 -2.27857 -0.00326183
thorax -4.64227 -1.08723 1.07012
lowerneck -12.395 -8.30204 -3.65717
upperneck 45.1447 -7.24994 -3.84575
head 19.521 -3.08788 -2.31939
rclavicle 6.40211e-014 2.98177e-015
rhumerus -41.3404 -4.88447 -79.5127
rradius 42.5718
rwrist -14.2029
rhand -28.3259 -11.796
rfingers 7.12502
rthumb -1.70063 -41.769
lclavicle 6.40211e-014 2.98177e-015
lhumerus -31.4404 -29.9743 107.874
lradius 41.878
lwrist 20.0805
lhand -14.6615 13.0075
lfingers 7.12502
lthumb 11.4912 42.6725
rfemur -14.8562 -4.09485 14.5663
rtibia 44.79
rfoot -27.2367 17.2211
rtoes -4.07614
lfemur -4.40579 -7.02135 -12.6275
ltibia 37.0262
lfoot -39.5892 2.81508
ltoes -20.7531
269
root 1.64436 19.0476 56.2508 -189.181 73.9042 -188.122
lowerback 8.7862 -1.57406 -1.33829
upperback 0.220191 -2.21002 0.000136498
thorax -4.64724 -1.05463 1.03011
lowerneck -12.3675 -8.2722 -3.65835
upperneck 45.1881 -7.16519 -3.89641
head 19.5406 -3.05727 -2.32772
rclavicle -5.15598e-015 5.56597e-015
rhumerus -41.2168 -4.46924 -80.0924
rradius 42.8925
rwrist -14.2797
rhand -28.357 -11.6872
rfingers 7.12502
rthumb -1.73072 -41.6599
lclavicle -5.15598e-015 5.56597e-015
lhumerus -31.1434 -28.6672 107.298
lradius 40.1988
lwrist 19.3579
lhand -15.0212 12.1631
lfingers 7.12502
lthumb 11.1443 41.8472
rfemur -14.9124 -4.17415 14.8126
rtibia 45.0339
rfoot -27.3006 17.1822
rtoes -4.37286
lfemur -4.36366 -7.09302 -12.3741
ltibia 37.067
lfoot -39.5232 2.63811
ltoes -20.4846
270
root 1.79039 19.0387 56.4968 -189.378 73.9749 -188.241
lowerback 8.72826 -1.49994 -1.37214
upperback 0.252749 -2.11753 -0.0942308
thorax -4.58552 -1.00973 0.937212
lowerneck -12.4126 -8.24931 -3.42219
upperneck 45.2163 -7.0771 -4.16329
head 19.5345 -3.01667 -2.48399
rclavicle 3.78933e-014 5.96354e-015
rhumerus -41.1033 -4.16687 -80.658
rradius 43.1982
rwrist -14.3541
rhand -28.2507 -11.6571
rfingers 7.12502
rthumb -1.62806 -41.6307
lclavicle 3.78933e-014 5.96354e-015
lhumerus -30.7796 -27.1643 106.567
lradius 38.5058
lwrist 18.0115
lhand -15.2401 11.8796
lfingers 7.12502
lthumb 10.9332 41.575
rfemur -14.9233 -4.29943 14.8554
rtibia 45.2494
rfoot -27.2772 17.3145
rtoes -4.14036
lfemur -4.28748 -7.14708 -12.3096
ltibia 37.1006
lfoot -39.5141 2.54027
ltoes -20.4651
271
root 1.93423 19.0303 56.7451 -189.235 74.0318 -188.1
lowerback 8.66387 -1.47421 -1.41228
upperback 0.210586 -2.08813 -0.101883
thorax -4.59295 -0.994593 0.946999
lowerneck -12.3806 -8.20425 -3.55241
upperneck 45.2901 -6.94728 -4.1489
head 19.5912 -2.97883 -2.43205
rclavicle 1.39149e-015 1.03368e-014
rhumerus -40.9989 -3.76053 -81.1632
rradius 43.4309
rwrist -14.333
rhand -28.1247 -11.6363
rfingers 7.12502
rthumb -1.50631 -41.6108
lclavicle 1.39149e-015 1.03368e-014
lhumerus -30.5548 -25.6577 105.904
lradius 36.9219
lwrist 17.1977
lhand -15.8865 11.4004
lfingers 7.12502
lthumb 10.3097 41.1277
rfemur -15.0371 -4.35971 15.0142
rtibia 45.4463
rfoot -27.4171 17.2365
rtoes -4.32539
lfemur -4.32859 -7.1442 -12.1191
ltibia 37.1188
lfoot -39.4437 2.42501
ltoes -20.4985
272
root 2.07848 19.022 56.9919 -189.172 74.094 -188.016
lowerback 8.60485 -1.48898 -1.50049
upperback 0.197834 -2.11756 -0.133973
thorax -4.57045 -1.00791 0.965198
lowerneck -12.378 -8.12262 -3.5156
upperneck 45.3276 -6.80985 -4.17445
head 19.6141 -2.91973 -2.42631
rclavicle 2.57923e-014 -6.16232e-015
rhumerus -40.8898 -3.18238 -81.786
rradius 43.6564
rwrist -14.3422
rhand -27.9627 -11.5212
rfingers 7.12502
rthumb -1.34988 -41.4967
lclavicle 2.57923e-014 -6.16232e-015
lhumerus -30.2825 -23.911 105.059
lradius 35.4873
lwrist 16.4479
lhand -16.9331 11.9258
lfingers 7.12502
lthumb 9.29993 41.7007
rfemur -15.0992 -4.41873 15.1464
rtibia 45.6155
rfoot -27.5366 17.2515
rtoes -4.57082
lfemur -4.33111 -7.1457 -11.9609
ltibia 37.1159
lfoot -39.3739 2.27145
ltoes -20.4101
273
root 2.22453 19.014 57.2383 -188.898 74.1954 -187.738
lowerback 8.51026 -1.46921 -1.50457
upperback 0.18197 -2.09038 -0.123233
thorax -4.53404 -0.994947 0.972716
lowerneck -12.4314 -8.06957 -3.47809
upperneck 45.3949 -6.67522 -4.28029
head 19.6686 -2.86989 -2.4652
rclavicle -1.29645e-014 1.98785e-015
rhumerus -40.7607 -2.71023 -82.2862
rradius 43.8279
rwrist -14.3747
rhand -27.7809 -11.4636
rfingers 7.12502
rthumb -1.17434 -41.4401
lclavicle -1.29645e-014 1.98785e-015
lhumerus -30.0518 -22.1959 104.262
lradius 34.048
lwrist 15.8146
lhand -17.7359 11.5151
lfingers 7.12502
lthumb 8.52524 41.323
rfemur -15.1771 -4.37184 15.3486
rtibia 45.7751
rfoot -27.6606 17.3386
rtoes -4.32042
lfemur -4.31396 -7.08731 -11.7359
ltibia 37.0741
lfoot -39.2974 2.09247
ltoes -20.2231
274
root 2.36881 19.0076 57.4825 -188.789 74.2596 -187.576
lowerback 8.49798 -1.43035 -1.49498
upperback 0.162154 -2.04006 -0.166141
thorax -4.55103 -0.970558 0.916764
lowerneck -12.3896 -8.05773 -3.47958
upperneck 45.418 -6.64465 -4.28834
head 19.6726 -2.85687 -2.4616
rclavicle 3.29983e-014 -1.0138e-014
rhumerus -40.7468 -2.29828 -82.7821
rradius 44.0688
rwrist -14.4733
rhand -27.6319 -11.4562
rfingers 7.12502
rthumb -1.03039 -41.4334
lclavicle 3.29983e-014 -1.0138e-014
lhumerus -29.6457 -19.4872 103.184
lradius 32.3957
lwrist 14.4155
lhand -18.513 11.2898
lfingers 7.12502
lthumb 7.77526 41.1268
rfemur -15.1917 -4.42229 15.504
rtibia 45.9074
rfoot -27.7636 17.2411
rtoes -4.63032
lfemur -4.24117 -7.09174 -11.5763
ltibia 37.0041
lfoot -39.2041 2.07511
ltoes -20.3542
